<?xml version="1.0" encoding="UTF-8"?>
<svg xmlns="http://www.w3.org/2000/svg" xmlns:xlink="http://www.w3.org/1999/xlink" viewBox="0 0 20 20" width="20px" height="20px">
<g id="surface34948282">
<path style=" stroke:none;fill-rule:nonzero;fill:rgb(100%,100%,100%);fill-opacity:1;" d="M 8.398438 1.199219 C 4.648438 1.199219 1.601562 4.25 1.601562 8 C 1.601562 11.75 4.648438 14.800781 8.398438 14.800781 C 9.882812 14.800781 11.257812 14.320312 12.375 13.511719 L 17.636719 18.761719 L 18.761719 17.636719 L 13.5625 12.425781 C 14.585938 11.234375 15.199219 9.6875 15.199219 8 C 15.199219 4.25 12.152344 1.199219 8.398438 1.199219 Z M 8.398438 2 C 11.71875 2 14.398438 4.679688 14.398438 8 C 14.398438 11.320312 11.71875 14 8.398438 14 C 5.082031 14 2.398438 11.320312 2.398438 8 C 2.398438 4.679688 5.082031 2 8.398438 2 Z M 8.398438 2 "/>
</g>
</svg>
